<svg width="120" height="120" viewBox="0 0 120 120" fill="none" xmlns="http://www.w3.org/2000/svg">
<path d="M46.2857 78V109.714" stroke="black" stroke-width="2" stroke-linecap="round"/>
<path d="M46.2857 77.1429L49.7143 84H42.8571L46.2857 77.1429Z" fill="white" stroke="black" stroke-width="2" stroke-linecap="round" stroke-linejoin="round"/>
<path d="M46.2857 78.8572C64.8627 78.8572 73.7143 47.7198 73.7143 32.5715C73.7143 17.4231 61.4341 5.14288 46.2857 5.14288C31.1373 5.14288 18.8571 17.4231 18.8571 32.5715C18.8571 47.7198 27.7088 78.8572 46.2857 78.8572Z" fill="white" stroke="#E31E4C" stroke-width="2"/>
<path d="M73.7143 94.2857V114.857" stroke="black" stroke-width="2" stroke-linecap="round"/>
<path d="M73.7143 92.5714L77.1428 99.4286H70.2857L73.7143 92.5714Z" fill="white" stroke="black" stroke-width="2" stroke-linecap="round" stroke-linejoin="round"/>
<path d="M73.7143 94.2857C92.2912 94.2857 101.143 63.1484 101.143 48C101.143 32.8516 88.8627 20.5714 73.7143 20.5714C58.5659 20.5714 46.2857 32.8516 46.2857 48C46.2857 63.1484 55.1373 94.2857 73.7143 94.2857Z" fill="white" stroke="#E31E4C" stroke-width="2"/>
</svg>
