<svg width="32" height="32" viewBox="0 0 32 32" fill="none" xmlns="http://www.w3.org/2000/svg">
<path d="M13 15V15.5H13.5V15H13ZM13.5 5C13.5 3.067 15.067 1.5 17 1.5V0.5C14.5147 0.5 12.5 2.51472 12.5 5H13.5ZM13.5 15V5H12.5V15H13.5ZM4 15.5H13V14.5H4V15.5ZM1.5 18C1.5 16.6193 2.61929 15.5 4 15.5V14.5C2.067 14.5 0.5 16.067 0.5 18H1.5ZM1.5 30V18H0.5V30H1.5ZM4 32.5C2.61929 32.5 1.5 31.3807 1.5 30H0.5C0.5 31.933 2.067 33.5 4 33.5V32.5ZM17 32.5H4V33.5H17V32.5ZM29 32.5H17V33.5H29V32.5ZM30 32.5H29V33.5H30V32.5ZM32.5 30C32.5 31.3807 31.3807 32.5 30 32.5V33.5C31.933 33.5 33.5 31.933 33.5 30H32.5ZM32.5 29V30H33.5V29H32.5ZM32.5 18V29H33.5V18H32.5ZM32.5 5V18H33.5V5H32.5ZM29 1.5C30.933 1.5 32.5 3.067 32.5 5H33.5C33.5 2.51472 31.4853 0.5 29 0.5V1.5ZM17 1.5H29V0.5H17V1.5Z" fill="#D9D9D9"/>
<path d="M6 24L11 26.8868V21.1132L6 24ZM23 24V24.5H23.5V24H23ZM10.5 24.5H23V23.5H10.5V24.5ZM23.5 24V20H22.5V24H23.5Z" fill="#D9D9D9"/>
</svg>
