<svg width="40" height="40" viewBox="0 0 40 40" fill="none" xmlns="http://www.w3.org/2000/svg">
<path d="M39 20C39 30.4934 30.4934 39 20 39C9.50659 39 1 30.4934 1 20C1 9.50659 9.50659 1 20 1C30.4934 1 39 9.50659 39 20Z" stroke="#E31E4C" stroke-width="2"/>
<path d="M21.1602 26.7383H18.3828V19.918H16.0625V17.2461H18.3828V15.2773C18.3828 14.1523 18.6992 13.2852 19.332 12.6758C19.9648 12.0664 20.8086 11.7617 21.8633 11.7617C22.707 11.7617 23.3984 11.7969 23.9375 11.8672V14.2227L22.4961 14.2578C21.9805 14.2578 21.6289 14.3633 21.4414 14.5742C21.2539 14.7852 21.1602 15.1016 21.1602 15.5234V17.2461H23.832L23.4805 19.918H21.1602V26.7383Z" fill="#E31E4C"/>
</svg>
