<svg width="120" height="120" viewBox="0 0 120 120" fill="none" xmlns="http://www.w3.org/2000/svg">
<path d="M60 114.857C90.2968 114.857 114.857 90.2968 114.857 60C114.857 29.7033 90.2968 5.14288 60 5.14288C29.7032 5.14288 5.14286 29.7033 5.14286 60C5.14286 90.2968 29.7032 114.857 60 114.857Z" fill="white" stroke="#E31E4C" stroke-width="2"/>
<path fill-rule="evenodd" clip-rule="evenodd" d="M51.2143 29.1429C50.1492 29.1429 49.2857 30.0063 49.2857 31.0715V43.9688C49.2857 45.3667 48.2784 46.5 47.0357 46.5C45.7931 46.5 44.7857 45.3667 44.7857 43.9688V31.0715C44.7857 30.0063 43.9223 29.1429 42.8571 29.1429C41.792 29.1429 40.9286 30.0063 40.9286 31.0715V43.9688C40.9286 45.3667 39.9212 46.5 38.6786 46.5C37.4359 46.5 36.4286 45.3667 36.4286 43.9688V31.0715C36.4286 30.0063 35.5651 29.1429 34.5 29.1429C33.4349 29.1429 32.5714 30.0063 32.5714 31.0715V46.5C32.5714 49.6954 34.874 52.2857 37.7143 52.2857H39V87C39 89.1303 40.7269 90.8572 42.8571 90.8572C44.9874 90.8572 46.7143 89.1303 46.7143 87V52.2857H48C50.8403 52.2857 53.1429 49.6954 53.1429 46.5V31.0715C53.1429 30.0063 52.2794 29.1429 51.2143 29.1429Z" fill="white"/>
<path d="M39 52.2857H40V51.2857H39V52.2857ZM46.7143 52.2857V51.2857H45.7143V52.2857H46.7143ZM50.2857 31.0715C50.2857 30.5586 50.7014 30.1429 51.2143 30.1429V28.1429C49.5969 28.1429 48.2857 29.454 48.2857 31.0715H50.2857ZM50.2857 43.9688V31.0715H48.2857V43.9688H50.2857ZM47.0357 47.5C48.9381 47.5 50.2857 45.805 50.2857 43.9688H48.2857C48.2857 44.9284 47.6186 45.5 47.0357 45.5V47.5ZM43.7857 43.9688C43.7857 45.8051 45.1333 47.5 47.0357 47.5V45.5C46.4528 45.5 45.7857 44.9284 45.7857 43.9688H43.7857ZM43.7857 31.0715V43.9688H45.7857V31.0715H43.7857ZM42.8571 30.1429C43.37 30.1429 43.7857 30.5586 43.7857 31.0715H45.7857C45.7857 29.454 44.4745 28.1429 42.8571 28.1429V30.1429ZM41.9286 31.0715C41.9286 30.5586 42.3443 30.1429 42.8571 30.1429V28.1429C41.2397 28.1429 39.9286 29.454 39.9286 31.0715H41.9286ZM41.9286 43.9688V31.0715H39.9286V43.9688H41.9286ZM38.6786 47.5C40.581 47.5 41.9286 45.8051 41.9286 43.9688H39.9286C39.9286 44.9284 39.2615 45.5 38.6786 45.5V47.5ZM35.4286 43.9688C35.4286 45.8051 36.7762 47.5 38.6786 47.5V45.5C38.0957 45.5 37.4286 44.9284 37.4286 43.9688H35.4286ZM35.4286 31.0715V43.9688H37.4286V31.0715H35.4286ZM34.5 30.1429C35.0128 30.1429 35.4286 30.5586 35.4286 31.0715H37.4286C37.4286 29.454 36.1174 28.1429 34.5 28.1429V30.1429ZM33.5714 31.0715C33.5714 30.5586 33.9872 30.1429 34.5 30.1429V28.1429C32.8826 28.1429 31.5714 29.4541 31.5714 31.0715H33.5714ZM33.5714 46.5V31.0715H31.5714V46.5H33.5714ZM37.7143 51.2857C35.5337 51.2857 33.5714 49.2571 33.5714 46.5H31.5714C31.5714 50.1337 34.2142 53.2857 37.7143 53.2857V51.2857ZM39 51.2857H37.7143V53.2857H39V51.2857ZM40 87V52.2857H38V87H40ZM42.8571 89.8572C41.2792 89.8572 40 88.578 40 87H38C38 89.6825 40.1746 91.8572 42.8571 91.8572V89.8572ZM45.7143 87C45.7143 88.578 44.4351 89.8572 42.8571 89.8572V91.8572C45.5397 91.8572 47.7143 89.6825 47.7143 87H45.7143ZM45.7143 52.2857V87H47.7143V52.2857H45.7143ZM48 51.2857H46.7143V53.2857H48V51.2857ZM52.1429 46.5C52.1429 49.2571 50.1806 51.2857 48 51.2857V53.2857C51.5001 53.2857 54.1429 50.1337 54.1429 46.5H52.1429ZM52.1429 31.0715V46.5H54.1429V31.0715H52.1429ZM51.2143 30.1429C51.7271 30.1429 52.1429 30.5586 52.1429 31.0715H54.1429C54.1429 29.454 52.8317 28.1429 51.2143 28.1429V30.1429Z" fill="#E31E4C"/>
<path fill-rule="evenodd" clip-rule="evenodd" d="M81 51.971C87.4286 50.7578 87.4286 46.1783 87.4286 40.7143C87.4286 34.3236 82.8235 29.1429 77.1429 29.1429C71.4622 29.1429 66.8571 34.3236 66.8571 40.7143C66.8571 46.1783 66.8571 50.7578 73.2857 51.971V87C73.2857 89.1303 75.0126 90.8572 77.1429 90.8572C79.2731 90.8572 81 89.1303 81 87V51.971Z" fill="white"/>
<path d="M81 51.971L80.8146 50.9884L80 51.1421V51.971H81ZM73.2857 51.971H74.2857V51.1421L73.4712 50.9884L73.2857 51.971ZM81.1855 52.9537C82.9035 52.6294 84.2638 52.0668 85.3206 51.2656C86.3853 50.4585 87.0908 49.448 87.5516 48.3128C88.444 46.1144 88.4286 43.3831 88.4286 40.7143H86.4286C86.4286 43.5095 86.4131 45.8 85.6984 47.5606C85.3557 48.4049 84.8558 49.1083 84.1124 49.6718C83.3612 50.2412 82.3108 50.706 80.8146 50.9884L81.1855 52.9537ZM88.4286 40.7143C88.4286 33.8853 83.4833 28.1429 77.1429 28.1429V30.1429C82.1638 30.1429 86.4286 34.7619 86.4286 40.7143H88.4286ZM77.1429 28.1429C70.8025 28.1429 65.8571 33.8853 65.8571 40.7143H67.8571C67.8571 34.7619 72.122 30.1429 77.1429 30.1429V28.1429ZM65.8571 40.7143C65.8571 43.3831 65.8417 46.1144 66.7342 48.3128C67.195 49.448 67.9004 50.4585 68.9651 51.2656C70.022 52.0668 71.3823 52.6294 73.1003 52.9537L73.4712 50.9884C71.9749 50.706 70.9245 50.2412 70.1733 49.6718C69.43 49.1083 68.9301 48.4049 68.5873 47.5606C67.8726 45.8 67.8571 43.5095 67.8571 40.7143H65.8571ZM74.2857 87V51.971H72.2857V87H74.2857ZM77.1429 89.8572C75.5649 89.8572 74.2857 88.578 74.2857 87H72.2857C72.2857 89.6825 74.4603 91.8572 77.1429 91.8572V89.8572ZM80 87C80 88.578 78.7208 89.8572 77.1429 89.8572V91.8572C79.8254 91.8572 82 89.6825 82 87H80ZM80 51.971V87H82V51.971H80Z" fill="#E31E4C"/>
</svg>
