<svg width="240" height="64" viewBox="0 0 240 64" fill="none" xmlns="http://www.w3.org/2000/svg">
<path fill-rule="evenodd" clip-rule="evenodd" d="M135.05 43.7014C132.676 43.7014 131.049 43.0492 129.788 41.7447L129.792 51.9175H124.555C124.232 51.9213 123.921 51.7937 123.692 51.5635C123.464 51.3334 123.337 51.0201 123.341 50.6945V21.3177H128.568C129.231 21.3349 129.765 21.8725 129.782 22.5407V24.375L129.786 24.3692C130.579 23.2176 132.177 20.8958 136.217 20.8958C140.434 20.8958 145.121 24.3221 145.121 31.4049C145.121 39.3498 140.07 43.7014 135.05 43.7014ZM134.378 26.1891C131.502 26.1891 130.167 28.6716 129.788 29.7702V37.4522C130.217 37.8395 131.332 38.6364 133.2 38.6364C135.669 38.6364 138.639 36.7063 138.639 31.5679C138.639 26.8841 136.179 26.1891 134.378 26.1891Z" fill="#8BC53F"/>
<path fill-rule="evenodd" clip-rule="evenodd" d="M158.932 43.6892C165.719 43.6892 170.103 39.0115 170.103 32.2609C170.103 25.5103 165.74 20.8347 158.932 20.8347C152.125 20.8347 147.762 25.6061 147.762 32.2609C147.762 38.9157 152.145 43.6892 158.932 43.6892ZM154.132 32.4117C154.132 28.5167 155.802 26.1891 158.884 26.1891C161.966 26.1891 163.635 28.4576 163.635 32.4117C163.635 36.3659 162 38.6364 158.884 38.6364C155.767 38.6364 154.132 36.3068 154.132 32.4117Z" fill="#8BC53F"/>
<path fill-rule="evenodd" clip-rule="evenodd" d="M183.964 43.6688C190.751 43.6688 195.135 38.9911 195.135 32.2405C195.135 25.4899 190.774 20.8143 183.964 20.8143C177.155 20.8143 172.794 25.5857 172.794 32.2405C172.794 38.8953 177.177 43.6688 183.964 43.6688ZM179.164 32.3913C179.164 28.4963 180.834 26.1687 183.916 26.1687C186.998 26.1687 188.667 28.4392 188.667 32.3913C188.667 36.3434 187.034 38.614 183.916 38.614C180.797 38.614 179.164 36.2864 179.164 32.3913Z" fill="#8BC53F"/>
<path fill-rule="evenodd" clip-rule="evenodd" d="M63.5413 32.0204C63.5413 49.6459 49.3556 63.9344 31.8563 63.9347C14.3571 63.9351 0.170728 49.6473 0.169983 32.0217C0.169238 14.3961 14.3544 0.107083 31.8536 0.105957C40.2577 0.104876 48.3179 3.46686 54.2607 9.45215C60.2034 15.4374 63.5419 23.5556 63.5413 32.0204Z" fill="#8BC53F"/>
<path fill-rule="evenodd" clip-rule="evenodd" d="M94.2921 37.1791C97.283 37.4278 94.3831 43.6444 86.5437 43.6444L86.5457 43.6464C78.4877 43.6464 75.084 37.4013 75.084 32.4851C75.084 27.6077 78.087 20.8387 86.5477 20.8387C95.4354 20.8387 97.455 28.2436 96.4938 32.1162C96.261 32.9987 95.403 34.4072 93.8327 34.4072H81.6587C81.94 36.2008 83.824 38.5305 88.4054 38.5305C91.3888 38.5305 92.6655 37.8684 93.4332 37.4703C93.7891 37.2857 94.0356 37.1578 94.2921 37.1791ZM90.5909 30.2696C91.2243 30.2696 91.2992 25.9893 86.7137 25.9893L86.7116 25.9873C83.3545 25.9873 81.6324 28.957 81.6385 30.2696H90.5909Z" fill="#8BC53F"/>
<path fill-rule="evenodd" clip-rule="evenodd" d="M100.44 36.1722V21.3279H110.981C115.378 21.3279 118.899 23.5699 118.899 27.4568C118.899 29.9944 117.379 31.2255 116.418 31.7044C117.497 32.0876 119.907 33.3941 119.907 36.6532C119.907 40.8703 116.359 43.1531 111.628 43.1511H106.932C103.38 43.1511 100.438 41.8364 100.438 36.1702L100.44 36.1722ZM113.591 36.5778C113.591 35.308 112.8 34.4112 111.424 34.4112H106.887V36.5207C106.887 37.4563 107.557 38.5834 108.866 38.5834H111.604C112.513 38.5814 113.595 37.7804 113.595 36.5758L113.591 36.5778ZM110.616 26.1523C112.347 26.134 112.842 27.4833 112.842 28.1559H112.847C112.855 29.493 111.887 30.2757 110.614 30.2777H106.887V26.1523H110.616Z" fill="#8BC53F"/>
<path fill-rule="evenodd" clip-rule="evenodd" d="M226.794 42.0301V26.1544H221.3C220.65 26.1682 220.11 25.6547 220.086 25.0008V21.3483H238.727C239.398 21.3483 239.941 21.8958 239.941 22.5712V26.1523H233.245V43.1715H228.01C227.368 43.1727 226.837 42.671 226.796 42.026" fill="#8BC53F"/>
<path fill-rule="evenodd" clip-rule="evenodd" d="M198.289 41.9872V21.3483H211.147C214.699 21.3483 217.641 22.6629 217.641 28.3292V43.1735H212.38C212.062 43.1784 211.755 43.0556 211.527 42.8322C211.299 42.6089 211.169 42.3034 211.166 41.9832V28.2171C211.16 27.0762 210.24 26.1544 209.108 26.1544H204.684V43.1735H199.514C198.859 43.1739 198.322 42.652 198.299 41.9934" fill="#8BC53F"/>
<path fill-rule="evenodd" clip-rule="evenodd" d="M39.2398 38.4326C31.4428 38.4326 28.2759 32.3404 29.1359 31.0277C29.6742 30.2125 32.8897 31.7207 37.0847 31.7207C45.9015 31.7207 45.2358 21.2382 37.196 21.2382C28.8789 21.2382 24.5039 27.2876 24.5039 33.4532C24.5039 42.5742 33.3511 48.2099 43.4084 45.5786C43.5845 45.5337 44.2988 45.4135 44.6347 46.029C44.9868 46.6731 44.5821 47.3111 44.1288 47.68C39.2074 51.6688 33.1487 53.0384 28.1019 53.0384C3.69106 53.0364 1.77268 11.0063 34.6867 11.0063C57.6729 11.0063 60.9288 38.4326 39.2398 38.4326Z" fill="#363B45"/>
</svg>
