<svg width="40" height="40" viewBox="0 0 40 40" fill="none" xmlns="http://www.w3.org/2000/svg">
<path d="M39 20C39 30.4934 30.4934 39 20 39C9.50659 39 1 30.4934 1 20C1 9.50659 9.50659 1 20 1C30.4934 1 39 9.50659 39 20Z" stroke="#E31E4C" stroke-width="2"/>
<path d="M25.9941 15.1367V13.625C25.9941 13.3672 25.8652 13.2383 25.6074 13.2383H24.1309C23.873 13.2383 23.7441 13.3672 23.7441 13.625V15.1367C23.7441 15.3711 23.873 15.4883 24.1309 15.4883H25.6074C25.8652 15.4883 25.9941 15.3711 25.9941 15.1367ZM14.3574 25.2617H25.6074C25.8652 25.2617 25.9941 25.1328 25.9941 24.875V18.5117H24.4121C24.459 18.793 24.4824 19.0391 24.4824 19.25C24.4824 20.4922 24.0371 21.5586 23.1465 22.4492C22.2793 23.3164 21.2246 23.75 19.9824 23.75C18.7402 23.75 17.6738 23.3164 16.7832 22.4492C15.916 21.5586 15.4824 20.4922 15.4824 19.25C15.4824 18.9922 15.5059 18.7461 15.5527 18.5117H14.0059V24.875C14.0059 25.1328 14.123 25.2617 14.3574 25.2617ZM22.127 17.1406C21.541 16.5547 20.8262 16.2617 19.9824 16.2617C19.1621 16.2617 18.459 16.5547 17.873 17.1406C17.2871 17.7266 16.9941 18.4297 16.9941 19.25C16.9941 20.0703 17.2871 20.7734 17.873 21.3594C18.459 21.9453 19.1621 22.2383 19.9824 22.2383C20.8262 22.2383 21.541 21.9453 22.127 21.3594C22.7129 20.7734 23.0059 20.0703 23.0059 19.25C23.0059 18.4297 22.7129 17.7266 22.127 17.1406ZM25.9941 11.7617C26.416 11.7617 26.7676 11.9141 27.0488 12.2188C27.3535 12.5 27.5059 12.8398 27.5059 13.2383V25.2617C27.5059 25.6602 27.3535 26 27.0488 26.2812C26.7676 26.5859 26.416 26.7383 25.9941 26.7383H14.0059C13.584 26.7383 13.2207 26.5859 12.916 26.2812C12.6348 26 12.4941 25.6602 12.4941 25.2617V13.2383C12.4941 12.8398 12.6348 12.5 12.916 12.2188C13.2207 11.9141 13.584 11.7617 14.0059 11.7617H25.9941Z" fill="#E31E4C"/>
</svg>
