<svg width="120" height="120" viewBox="0 0 120 120" fill="none" xmlns="http://www.w3.org/2000/svg">
<path d="M5.14288 114.857H114.857L87.4286 60L32.5715 60L5.14288 114.857Z" fill="white" stroke="black" stroke-width="2"/>
<path d="M60 87.4286C60 87.4286 87.4286 47.7198 87.4286 32.5715C87.4286 17.4231 75.1484 5.14288 60 5.14288C44.8516 5.14288 32.5714 17.4231 32.5714 32.5715C32.5714 47.7198 60 87.4286 60 87.4286Z" fill="white" stroke="black" stroke-width="2"/>
<path d="M60 46.2857C67.5742 46.2857 73.7143 40.1456 73.7143 32.5714C73.7143 24.9972 67.5742 18.8571 60 18.8571C52.4258 18.8571 46.2857 24.9972 46.2857 32.5714C46.2857 40.1456 52.4258 46.2857 60 46.2857Z" fill="white" stroke="black" stroke-width="2"/>
</svg>
