<svg width="269" height="228" viewBox="0 0 269 228" fill="none" xmlns="http://www.w3.org/2000/svg">
<g filter="url(#filter0_d)">
<rect x="4" y="219" width="261" height="1" fill="#F7F7F7"/>
<path fill-rule="evenodd" clip-rule="evenodd" d="M102.672 152.947C102.068 151.732 101.148 151.048 99.762 151.048C98.5367 151.048 97.6241 151.488 97.0179 152.209C96.4117 152.93 96.1119 153.932 96.1137 155.053C96.1148 156.174 96.4486 157.176 97.079 157.897C97.7082 158.618 98.6333 159.059 99.8164 159.059C101.166 159.059 102.193 158.49 102.785 157.78V156.115H99.8691V154.949H104.076V158.211C103.473 158.958 102.912 159.396 102.038 159.762C101.36 160.047 100.618 160.183 99.823 160.183C98.2113 160.183 96.9645 159.559 96.1214 158.605C95.2779 157.652 94.8369 156.367 94.8355 155.046C94.8333 152.404 96.4603 149.909 99.755 149.909C101.664 149.909 103.534 151.037 104.097 152.944L102.672 152.947ZM119.25 150.076L123.261 160.016H121.764L120.655 157.004H116.449L115.35 160.016H113.954L117.803 150.076H119.25ZM224.339 160.016H222.842L221.733 157.003H217.528L216.427 160.016H215.033L218.882 150.076H220.328L224.339 160.016ZM219.622 151.269L221.339 155.935H217.918L219.622 151.269ZM172.74 175.399C173.55 175.584 174.107 175.744 174.408 175.881C174.846 176.082 175.17 176.336 175.379 176.648C175.588 176.956 175.691 177.312 175.691 177.716C175.691 178.391 175.405 178.913 174.967 179.283C174.426 179.742 173.653 179.969 172.908 179.969C171.845 179.969 170.826 179.657 170.233 178.953C169.866 178.52 169.712 177.945 169.701 177.369H170.641C170.699 177.872 170.877 178.224 171.153 178.501C171.555 178.906 172.157 179.085 172.862 179.085C173.287 179.085 173.796 178.993 174.175 178.758C174.502 178.556 174.733 178.248 174.733 177.8C174.733 177.394 174.536 177.104 174.196 176.903C173.947 176.756 173.682 176.677 173.407 176.601C173.177 176.537 172.876 176.461 172.506 176.371L172.501 176.37C171.918 176.23 171.231 176.065 170.737 175.707C170.254 175.356 169.984 174.862 169.984 174.258C169.984 173.876 170.094 173.52 170.309 173.19C170.525 172.858 170.839 172.607 171.255 172.435C171.669 172.263 172.131 172.177 172.638 172.177C173.196 172.177 173.689 172.267 174.116 172.448C174.542 172.627 174.87 172.891 175.099 173.242C175.33 173.591 175.453 173.989 175.471 174.43L175.47 174.481L174.51 174.48C174.458 174.047 174.307 173.726 174.079 173.505C173.752 173.187 173.265 173.061 172.677 173.061C172.29 173.061 171.823 173.124 171.471 173.32C171.162 173.492 170.943 173.767 170.943 174.194C170.943 174.464 171.041 174.687 171.235 174.863C171.429 175.036 171.929 175.217 172.74 175.399ZM146.934 179.843H145.934V172.304H146.934V179.843ZM156.567 172.304L160.522 178.222V172.304H161.48V179.843H160.456L156.5 173.925V179.843H155.541V172.304H156.567ZM189.975 172.304H188.624L184.879 176.041V172.304H183.879V179.843H184.879V177.232L186.113 176.038L188.796 179.843H190.112L186.813 175.361L189.975 172.304ZM134.141 177.547C133.958 178.079 133.823 178.483 133.737 178.757C133.661 178.509 133.542 178.137 133.377 177.64L131.594 172.304H130.099V179.843H131.057V173.42L133.233 179.843H134.131L136.333 173.536V179.843H137.291V172.304H135.955L134.141 177.547ZM192.341 154.046C191.99 154.324 191.502 154.463 190.96 154.463H187.645V151.172H190.92C191.451 151.172 191.95 151.297 192.312 151.559C192.676 151.822 192.907 152.226 192.907 152.788C192.907 153.348 192.691 153.769 192.341 154.046ZM191.939 155.499L195.071 160.016H193.428L192.113 157.948L190.512 155.601H187.645V160.016H186.326V150.076H190.972C191.868 150.076 192.692 150.243 193.291 150.666C193.891 151.087 194.268 151.765 194.268 152.785C194.268 153.792 193.846 154.497 193.222 154.948C192.852 155.217 192.408 155.397 191.939 155.499ZM118.544 151.269L120.261 155.934H116.84L118.544 151.269ZM204.526 160.017H205.845V150.076H204.526V160.017ZM169.72 158.85H175.161V160.016H168.4V150.076H175.161V151.241H169.72V154.296H175.161V155.462H169.72V158.85ZM157.788 158.85H152.901V150.076H151.582V160.016H157.788V158.85ZM140.043 158.85H135.156V150.076H133.837V160.016H140.043V158.85Z" fill="black"/>
<path fill-rule="evenodd" clip-rule="evenodd" d="M82.7165 108.135C93.6291 100.388 109.166 88.8224 115.397 76.8718C117.133 73.5434 117.564 70.7014 117.041 68.5727C116.496 66.35 110.546 58.4133 107.879 55.8254C103.71 51.7804 95.9205 56.7796 92.6953 59.7837C85.0467 66.9091 81.5611 79.1851 79.4317 85.4795C78.1256 89.3409 76.511 94.029 74.6448 99.1391C64.228 105.718 53.9505 111.188 46.5794 113.225C43.9523 113.95 41.4792 114.362 39.2116 114.4C33.424 114.498 32.8763 111.024 32.798 106.28C32.3523 79.3617 64.3213 21.6038 103.038 11.4678C111.7 9.20012 119.145 9.15259 122.691 9.61657C126.858 10.1625 128.349 12.6034 127.619 16.5464C127.117 19.2641 126.675 21.2115 124.909 24.4681C128.039 25.0009 127.65 28.2162 128.177 30.4575C128.652 32.4721 129.209 34.5029 131.886 35.3391C136.624 26.6045 134.9 17.916 132.593 14.7562C130.226 11.5138 127.793 8.02352 125.181 5.16466C120.806 0.377452 109.557 -1.39659 99.4671 1.1855C59.1417 11.5069 24.5589 69.4838 25.0043 96.403C25.0785 100.857 25.7681 104.376 26.9746 107.075C28.3085 110.063 36.0405 119.919 38.3059 121.51C42.4174 124.395 48.1534 124.82 54.3724 123.102C57.903 122.126 62.0997 120.363 66.6298 118.056C60.3286 131.323 55.2456 142.715 45.0127 149.651L54.8803 159.721C54.8803 159.721 154.297 99.8645 224.817 99.8645V89.9014C154.388 89.9014 69.2558 137.911 69.2558 137.911C74.7059 128.357 79.2203 117.52 82.7165 108.135ZM90.186 86.5844C92.401 80.7332 95.5852 74.097 100.463 69.5562C102.36 67.791 104.23 66.5014 105.998 65.6392C108.061 64.6319 108.386 65.3409 107.579 66.8886C104.493 72.8049 98.0295 79.8133 90.186 86.5844Z" fill="#E31E4C"/>
</g>
<defs>
<filter id="filter0_d" x="0" y="0" width="269" height="228" filterUnits="userSpaceOnUse" color-interpolation-filters="sRGB">
<feFlood flood-opacity="0" result="BackgroundImageFix"/>
<feColorMatrix in="SourceAlpha" type="matrix" values="0 0 0 0 0 0 0 0 0 0 0 0 0 0 0 0 0 0 127 0"/>
<feOffset dy="4"/>
<feGaussianBlur stdDeviation="2"/>
<feColorMatrix type="matrix" values="0 0 0 0 0 0 0 0 0 0 0 0 0 0 0 0 0 0 0.25 0"/>
<feBlend mode="normal" in2="BackgroundImageFix" result="effect1_dropShadow"/>
<feBlend mode="normal" in="SourceGraphic" in2="effect1_dropShadow" result="shape"/>
</filter>
</defs>
</svg>
