<svg width="200" height="180" viewBox="0 0 200 180" fill="none" xmlns="http://www.w3.org/2000/svg">
<path fill-rule="evenodd" clip-rule="evenodd" d="M77.6716 152.947C77.0676 151.732 76.1484 151.048 74.762 151.048C73.5367 151.048 72.6241 151.488 72.0179 152.209C71.4117 152.93 71.1119 153.932 71.1137 155.053C71.1148 156.174 71.4486 157.176 72.079 157.897C72.7082 158.618 73.6333 159.059 74.8164 159.059C76.1656 159.059 77.1927 158.49 77.7846 157.78V156.115H74.8691V154.949H79.0757V158.211C78.4727 158.958 77.9119 159.396 77.0384 159.762C76.3598 160.047 75.6175 160.183 74.823 160.183C73.2113 160.183 71.9645 159.559 71.1214 158.605C70.2779 157.652 69.8369 156.367 69.8355 155.046C69.8333 152.404 71.4603 149.909 74.755 149.909C76.6636 149.909 78.5338 151.037 79.0965 152.944L77.6716 152.947ZM94.2497 150.076L98.261 160.016H96.7642L95.6552 157.004H91.4493L90.3499 160.016H88.9539L92.8033 150.076H94.2497ZM199.339 160.016H197.842L196.733 157.003H192.528L191.427 160.016H190.033L193.882 150.076H195.328L199.339 160.016ZM194.622 151.269L196.339 155.935H192.918L194.622 151.269ZM147.74 175.399C148.55 175.584 149.107 175.744 149.408 175.881C149.846 176.082 150.17 176.336 150.379 176.648C150.588 176.956 150.691 177.312 150.691 177.716C150.691 178.391 150.405 178.913 149.967 179.283C149.426 179.742 148.653 179.969 147.908 179.969C146.845 179.969 145.826 179.657 145.233 178.953C144.866 178.52 144.712 177.945 144.701 177.369H145.641C145.699 177.872 145.877 178.224 146.153 178.501C146.555 178.906 147.157 179.085 147.862 179.085C148.287 179.085 148.796 178.993 149.175 178.758C149.502 178.556 149.733 178.248 149.733 177.8C149.733 177.394 149.536 177.104 149.196 176.903C148.947 176.756 148.682 176.677 148.407 176.601C148.177 176.537 147.876 176.461 147.506 176.371L147.501 176.37C146.918 176.23 146.231 176.065 145.737 175.707C145.254 175.356 144.984 174.862 144.984 174.258C144.984 173.876 145.094 173.52 145.309 173.19C145.525 172.858 145.839 172.607 146.255 172.435C146.669 172.263 147.131 172.177 147.638 172.177C148.196 172.177 148.689 172.267 149.116 172.448C149.542 172.627 149.87 172.891 150.099 173.242C150.33 173.591 150.453 173.989 150.471 174.43L150.47 174.481L149.51 174.48C149.458 174.047 149.307 173.726 149.079 173.505C148.752 173.187 148.265 173.061 147.677 173.061C147.29 173.061 146.823 173.124 146.471 173.32C146.162 173.492 145.943 173.767 145.943 174.194C145.943 174.464 146.041 174.687 146.235 174.863C146.429 175.036 146.929 175.217 147.74 175.399ZM121.934 179.843H120.934V172.304H121.934V179.843ZM131.567 172.304L135.522 178.222V172.304H136.48V179.843H135.456L131.5 173.925V179.843H130.541V172.304H131.567ZM164.975 172.304H163.624L159.879 176.041V172.304H158.879V179.843H159.879V177.232L161.113 176.038L163.796 179.843H165.112L161.813 175.361L164.975 172.304ZM109.141 177.547C108.958 178.079 108.823 178.483 108.737 178.757C108.661 178.509 108.542 178.137 108.377 177.64L106.594 172.304H105.099V179.843H106.057V173.42L108.233 179.843H109.131L111.333 173.536V179.843H112.291V172.304H110.955L109.141 177.547ZM167.341 154.046C166.99 154.324 166.502 154.463 165.96 154.463H162.645V151.172H165.92C166.451 151.172 166.95 151.297 167.312 151.559C167.676 151.822 167.907 152.226 167.907 152.788C167.907 153.348 167.691 153.769 167.341 154.046ZM166.939 155.499L170.071 160.016H168.428L167.113 157.948L165.512 155.601H162.645V160.016H161.326V150.076H165.972C166.868 150.076 167.692 150.243 168.291 150.666C168.891 151.087 169.268 151.765 169.268 152.785C169.268 153.792 168.846 154.497 168.222 154.948C167.852 155.217 167.408 155.397 166.939 155.499ZM93.544 151.269L95.2614 155.934H91.8398L93.544 151.269ZM179.526 160.017H180.845V150.076H179.526V160.017ZM144.72 158.85H150.161V160.016H143.4V150.076H150.161V151.241H144.72V154.296H150.161V155.462H144.72V158.85ZM132.788 158.85H127.901V150.076H126.582V160.016H132.788V158.85ZM115.043 158.85H110.156V150.076H108.837V160.016H115.043V158.85Z" fill="black"/>
<path fill-rule="evenodd" clip-rule="evenodd" d="M57.7165 108.135C68.6291 100.388 84.1662 88.8224 90.3973 76.8718C92.1326 73.5434 92.5644 70.7014 92.0412 68.5727C91.4964 66.35 85.5461 58.4133 82.8792 55.8254C78.7099 51.7804 70.9205 56.7796 67.6953 59.7837C60.0467 66.9091 56.5611 79.1851 54.4317 85.4795C53.1256 89.3409 51.511 94.029 49.6448 99.1391C39.228 105.718 28.9505 111.188 21.5794 113.225C18.9523 113.95 16.4792 114.362 14.2116 114.4C8.424 114.498 7.87628 111.024 7.79804 106.28C7.35233 79.3617 39.3213 21.6038 78.0383 11.4678C86.7001 9.20012 94.1454 9.15259 97.6913 9.61657C101.858 10.1625 103.349 12.6034 102.619 16.5464C102.117 19.2641 101.675 21.2115 99.9088 24.4681C103.039 25.0009 102.65 28.2162 103.177 30.4575C103.652 32.4721 104.209 34.5029 106.886 35.3391C111.624 26.6045 109.9 17.916 107.593 14.7562C105.226 11.5138 102.793 8.02352 100.181 5.16466C95.8061 0.377452 84.5574 -1.39659 74.4671 1.1855C34.1417 11.5069 -0.441084 69.4838 0.00425398 96.403C0.078477 100.857 0.768057 104.376 1.97464 107.075C3.30846 110.063 11.0405 119.919 13.3059 121.51C17.4174 124.395 23.1534 124.82 29.3724 123.102C32.903 122.126 37.0997 120.363 41.6298 118.056C35.3286 131.323 30.2456 142.715 20.0127 149.651L29.8803 159.721C29.8803 159.721 129.297 99.8645 199.817 99.8645V89.9014C129.388 89.9014 44.2558 137.911 44.2558 137.911C49.7059 128.357 54.2203 117.52 57.7165 108.135ZM65.186 86.5844C67.401 80.7332 70.5852 74.097 75.4635 69.5562C77.3596 67.791 79.2302 66.5014 80.9977 65.6392C83.0613 64.6319 83.386 65.3409 82.5787 66.8886C79.4935 72.8049 73.0295 79.8133 65.186 86.5844Z" fill="#E31E4C"/>
</svg>
