<svg width="120" height="120" viewBox="0 0 120 120" fill="none" xmlns="http://www.w3.org/2000/svg">
<rect x="5.14285" y="5.14288" width="109.714" height="109.714" fill="white" stroke="#E31E4C" stroke-width="2"/>
<path fill-rule="evenodd" clip-rule="evenodd" d="M58.5038 32.5714H37.7143V87.4286H49.5265V69.4041H58.5038C71.8122 69.4041 82.2857 65.1722 82.2857 50.9877C82.2857 36.8032 71.8122 32.5714 58.5038 32.5714ZM58.7256 42.8571C64.8665 42.8571 70.0504 44.4383 70.0504 51C70.0504 57.4826 64.8665 59.1428 58.7256 59.1428H49.0756V42.8571H58.7256Z" fill="white"/>
<path d="M37.7143 32.5714V31.5714H36.7143V32.5714H37.7143ZM37.7143 87.4286H36.7143V88.4286H37.7143V87.4286ZM49.5265 87.4286V88.4286H50.5265V87.4286H49.5265ZM49.5265 69.4041V68.4041H48.5265V69.4041H49.5265ZM49.0756 59.1428H48.0756V60.1428H49.0756V59.1428ZM49.0756 42.8571V41.8571H48.0756V42.8571H49.0756ZM37.7143 33.5714H58.5038V31.5714H37.7143V33.5714ZM38.7143 87.4286V32.5714H36.7143V87.4286H38.7143ZM49.5265 86.4286H37.7143V88.4286H49.5265V86.4286ZM48.5265 69.4041V87.4286H50.5265V69.4041H48.5265ZM58.5038 68.4041H49.5265V70.4041H58.5038V68.4041ZM81.2857 50.9877C81.2857 57.7936 78.797 62.0607 74.8339 64.6809C70.7949 67.3513 65.0856 68.4041 58.5038 68.4041V70.4041C65.2304 70.4041 71.4121 69.3409 75.9369 66.3493C80.5377 63.3075 83.2857 58.3664 83.2857 50.9877H81.2857ZM58.5038 33.5714C65.0856 33.5714 70.7949 34.6242 74.8339 37.2946C78.797 39.9148 81.2857 44.1819 81.2857 50.9877H83.2857C83.2857 43.6091 80.5377 38.668 75.9369 35.6262C71.4121 32.6346 65.2304 31.5714 58.5038 31.5714V33.5714ZM71.0504 51C71.0504 47.3986 69.595 45.018 67.1984 43.6063C64.8978 42.2512 61.8436 41.8571 58.7256 41.8571V43.8571C61.7486 43.8571 64.3568 44.2537 66.1833 45.3295C67.9139 46.3489 69.0504 48.0396 69.0504 51H71.0504ZM58.7256 60.1428C61.8495 60.1428 64.9024 59.7275 67.2014 58.3622C69.5922 56.9426 71.0504 54.5657 71.0504 51H69.0504C69.0504 53.9169 67.9167 55.6115 66.1803 56.6426C64.3522 57.7281 61.7426 58.1428 58.7256 58.1428V60.1428ZM49.0756 60.1428H58.7256V58.1428H49.0756V60.1428ZM48.0756 42.8571V59.1428H50.0756V42.8571H48.0756ZM58.7256 41.8571H49.0756V43.8571H58.7256V41.8571Z" fill="#E31E4C"/>
</svg>
