<svg width="20" height="20" viewBox="0 0 20 20" fill="none" xmlns="http://www.w3.org/2000/svg">
<path d="M10 20C15.5228 20 20 15.5228 20 10C20 4.47715 15.5228 0 10 0C4.47715 0 0 4.47715 0 10C0 15.5228 4.47715 20 10 20Z" fill="#E31E4C"/>
<path d="M6.71208 5.292V7.252C7.72008 6.482 8.84008 6.118 9.79208 6.118C10.7581 6.118 11.3741 6.482 11.3741 7.182C11.3741 8.092 10.5201 8.47 9.52608 9.044C8.12608 9.87 6.39008 10.766 6.39008 13.062V14H13.5301V12.194L8.77008 12.208C8.78408 11.592 9.75008 11.074 10.8841 10.402C12.1301 9.66 13.4601 8.708 13.4601 7.098C13.4601 5.152 11.9061 4.284 9.98808 4.284C8.82608 4.284 7.69208 4.592 6.71208 5.292Z" fill="white"/>
</svg>
